<?xml version="1.0" encoding="UTF-8" standalone="no"?>
<svg width="16px" height="16px" viewBox="0 0 16 16" version="1.1" xmlns="http://www.w3.org/2000/svg" xmlns:xlink="http://www.w3.org/1999/xlink">
    <!-- Generator: Sketch 3.6.1 (26313) - http://www.bohemiancoding.com/sketch -->
    <title>Shape Copy</title>
    <desc>Created with Sketch.</desc>
    <defs></defs>
    <g id="Welcome" stroke="none" stroke-width="1" fill="none" fill-rule="evenodd">
        <g id="Mobile-Portrait" transform="translate(-262.000000, -223.000000)" fill="#FFFFFF">
            <g id="social-+-Facebook-ALT-Fly-Out-2-Copy" transform="translate(18.000000, 218.000000)">
                <path d="M258.4,5 L245.6,5 C244.72,5 244,5.72 244,6.6 L244,19.4 C244,20.28 244.72,21 245.6,21 L258.4,21 C259.28,21 260,20.28 260,19.4 L260,6.6 C260,5.72 259.28,5 258.4,5 L258.4,5 Z M252,9.8 C253.76,9.8 255.2,11.24 255.2,13 C255.2,14.76 253.76,16.2 252,16.2 C250.24,16.2 248.8,14.76 248.8,13 C248.8,11.24 250.24,9.8 252,9.8 L252,9.8 Z M246,19.4 C245.76,19.4 245.6,19.24 245.6,19 L245.6,12.2 L247.28,12.2 C247.2,12.44 247.2,12.76 247.2,13 C247.2,15.64 249.36,17.8 252,17.8 C254.64,17.8 256.8,15.64 256.8,13 C256.8,12.76 256.8,12.44 256.72,12.2 L258.4,12.2 L258.4,19 C258.4,19.24 258.24,19.4 258,19.4 L246,19.4 L246,19.4 Z M258.4,8.6 C258.4,8.84 258.24,9 258,9 L256.4,9 C256.16,9 256,8.84 256,8.6 L256,7 C256,6.76 256.16,6.6 256.4,6.6 L258,6.6 C258.24,6.6 258.4,6.76 258.4,7 L258.4,8.6 L258.4,8.6 Z" id="Shape-Copy"></path>
            </g>
        </g>
    </g>
</svg>