<?xml version="1.0" encoding="UTF-8" standalone="no"?>
<svg width="53px" height="37px" viewBox="0 0 53 37" version="1.1" xmlns="http://www.w3.org/2000/svg" xmlns:xlink="http://www.w3.org/1999/xlink">
    <!-- Generator: Sketch 3.6.1 (26313) - http://www.bohemiancoding.com/sketch -->
    <title>Play Button + Path 2</title>
    <desc>Created with Sketch.</desc>
    <defs></defs>
    <g id="Welcome" stroke="none" stroke-width="1" fill="none" fill-rule="evenodd">
        <g id="fluxo1" transform="translate(-483.000000, -446.000000)">
            <g id="Play-Button-+-Path-2" transform="translate(483.150235, 446.346939)">
                <path d="M51.7131706,7.85642274 C51.7131706,7.85642274 51.2028147,4.28829847 49.636564,2.71701392 C47.6502669,0.654731465 45.4238263,0.644491781 44.4028076,0.52379531 C37.0933139,0 26.1286899,0 26.1286899,0 L26.1059847,0 C26.1059847,0 15.1416164,0 7.831867,0.52379531 C6.81079716,0.644491781 4.5851748,0.654731465 2.59816174,2.71701392 C1.03201335,4.28829847 0.522373338,7.85642274 0.522373338,7.85642274 C0.522373338,7.85642274 0,12.0465825 0,16.2366915 L0,20.1649282 C0,24.3549865 0.522373338,28.5450956 0.522373338,28.5450956 C0.522373338,28.5450956 1.03201335,32.1132705 2.59816174,33.6845551 C4.5851748,35.7468882 7.19525166,35.6816482 8.35776885,35.8977968 C12.5366021,36.2950154 26.1173884,36.4179423 26.1173884,36.4179423 C26.1173884,36.4179423 37.0933139,36.401569 44.4028076,35.8778244 C45.4238263,35.7570772 47.6502669,35.7468882 49.636564,33.6845551 C51.2028147,32.1132705 51.7131706,28.5450956 51.7131706,28.5450956 C51.7131706,28.5450956 52.2347769,24.3549865 52.2347769,20.1649282 L52.2347769,16.2366915 C52.2347769,12.0465825 51.7131706,7.85642274 51.7131706,7.85642274 L51.7131706,7.85642274 Z" id="Play-Button" fill="#F6A800"></path>
                <path d="M20.5797623,24.5425264 L20.5773363,10.2920272 L34.8231846,17.4421034 L20.5797623,24.5425264 L20.5797623,24.5425264 Z" id="Path-2" fill="#EEEEEE"></path>
            </g>
        </g>
    </g>
</svg>