<?xml version="1.0" encoding="UTF-8" standalone="no"?>
<svg width="118px" height="23px" viewBox="0 0 118 23" version="1.1" xmlns="http://www.w3.org/2000/svg" xmlns:xlink="http://www.w3.org/1999/xlink">
    <!-- Generator: Sketch 3.6.1 (26313) - http://www.bohemiancoding.com/sketch -->
    <title>Logo mobile</title>
    <desc>Created with Sketch.</desc>
    <defs>
        <path id="path-1" d="M0,22.7573238 L117.905338,22.7573238 L117.905338,0.090359962 L0,0.090359962 L0,22.7573238 Z"></path>
    </defs>
    <g id="Page-1" stroke="none" stroke-width="1" fill="none" fill-rule="evenodd">
        <g id="Mobile-Portrait" transform="translate(-26.000000, -20.000000)">
            <g id="Logo-mobile" transform="translate(26.000000, 20.000000)">
                <path d="M81.0119076,22.8900748 L117.697039,22.8900748 L117.697039,19.3202985 L81.0119076,19.3202985 L81.0119076,22.8900748 Z" id="Fill-1" fill="#34B6B3"></path>
                <g id="Group-17" transform="translate(0.000000, 0.132751)">
                    <path d="M4.18740776,7.37214579 C4.18740776,7.37214579 4.43867579,7.39356445 4.89933383,7.39356445 C5.96722292,7.39356445 6.90925989,6.94399575 6.90925989,5.61603897 C6.90925989,4.54510609 6.30202884,3.92396502 4.75276081,3.92396502 C4.43867579,3.92396502 4.18740776,3.94538367 4.18740776,3.94538367 L4.18740776,7.37214579 L4.18740776,7.37214579 Z M4.3622922e-05,15.6178828 L4.3622922e-05,0.411528271 C4.3622922e-05,0.411528271 1.80057967,0.390332725 3.55945582,0.390332725 C7.13958891,0.390332725 11.0968421,0.839901425 11.0968421,5.61603897 C11.0968421,8.65726525 8.81470906,10.7132333 5.31811386,10.7132333 C4.54337079,10.7132333 4.18740776,10.670396 4.18740776,10.670396 L4.18740776,15.6178828 L4.3622922e-05,15.6178828 L4.3622922e-05,15.6178828 Z" id="Fill-2" fill="#E5005A"></path>
                    <path d="M17.6508806,3.70986768 C17.1064665,3.70986768 17.0645885,3.73128634 17.0645885,3.73128634 L17.0645885,6.90102457 C17.0645885,6.90102457 17.1274055,6.94386188 17.5252466,6.94386188 C18.4884407,6.94386188 19.6189287,6.7296753 19.6189287,5.3160439 C19.6189287,4.26675278 19.0326366,3.70986768 17.6508806,3.70986768 L17.6508806,3.70986768 Z M17.0645885,9.89941353 L17.0645885,15.6177489 L12.8772244,15.6177489 L12.8772244,0.411617516 C12.8772244,0.411617516 14.8871505,0.368780201 17.1064665,0.368780201 C20.8333908,0.368780201 23.7855719,1.0755959 23.7855719,4.63064685 C23.7855719,6.81534993 22.5713279,8.10046939 21.0427808,8.76422467 C21.3568658,8.93557393 21.7128288,9.27827245 22.0897309,10.0493441 C22.9270728,11.8054509 24.476559,15.6177489 24.476559,15.6177489 L20.0167697,15.6177489 L17.6927586,9.89941353 L17.0645885,9.89941353 Z" id="Fill-4" fill="#E5005A"></path>
                    <path d="M25.9222007,0.411572894 L34.7996832,0.411572894 L34.7996832,3.9454283 L30.1095649,3.9454283 L30.1095649,6.19416424 L34.3599641,6.19416424 L34.3599641,9.62092636 L30.1095649,9.62092636 L30.1095649,12.0838489 L34.7996832,12.0838489 L34.7996832,15.6177043 L25.9222007,15.6177043 L25.9222007,0.411572894 Z" id="Fill-6" fill="#E5005A"></path>
                    <path d="M43.9081272,5.44464509 C43.9081272,4.2237816 43.3637131,3.6242823 42.5470921,3.6242823 C41.7516281,3.6242823 41.165336,4.15952563 41.123458,5.25187717 C41.060641,6.70834589 41.08158,9.02133781 41.123458,10.6489327 C41.165336,11.8055402 41.6888111,12.4050395 42.5263712,12.4050395 C43.2799571,12.4050395 44.0128222,11.8055402 44.0128222,10.5846767 L47.8863194,10.6919931 C47.8863194,13.7974754 45.8133582,15.9388949 42.4216762,15.9388949 C39.2389479,15.9388949 36.9986928,14.0542761 36.9358758,10.8631193 C36.8939978,8.52870868 36.8730588,6.6012526 36.9358758,5.05910925 C37.0615098,1.73944042 39.7205449,0.0904268953 42.5470921,0.0904268953 C45.4364562,0.0904268953 47.8863194,1.73944042 47.7816244,5.3375518 L43.9081272,5.44464509 Z" id="Fill-8" fill="#E5005A"></path>
                    <mask id="mask-2" fill="white">
                        <use xlink:href="#path-1"></use>
                    </mask>
                    <g id="Clip-11"></g>
                    <path d="M49.6668762,15.6177712 L53.8542403,15.6177712 L53.8542403,0.411639827 L49.6668762,0.411639827 L49.6668762,15.6177712 Z" id="Fill-10" fill="#E5005A" mask="url(#mask-2)"></path>
                    <path d="M63.0460913,11.4627747 C63.0460913,10.7987963 62.4807383,10.3061672 60.1986052,9.53531866 C58.0211671,8.80730741 56.2832299,7.52218795 56.2832299,4.86649751 C56.2832299,1.65392197 58.8794481,0.090359962 61.7059952,0.090359962 C64.5746384,0.090359962 67.0661616,1.6322802 66.9195885,5.33748487 L63.0460913,5.44457816 C63.0460913,4.18110046 62.5435553,3.62421537 61.6641172,3.62421537 C61.0150081,3.62421537 60.4708122,3.94549523 60.4708122,4.5666363 C60.4708122,5.33748487 60.8893741,5.7230207 63.3182983,6.60118567 C65.6215885,7.43651332 67.2334555,8.46460889 67.2334555,11.3559046 C67.2334555,14.1827211 64.8885054,15.938828 61.7690303,15.938828 C58.7749712,15.938828 56.011241,14.3540704 56.1785349,10.6919262 L60.0520322,10.5846098 C60.0520322,11.9127897 60.8267752,12.4051957 61.7480913,12.4051957 C62.5644943,12.4051957 63.0460913,12.1053345 63.0460913,11.4627747" id="Fill-12" fill="#E5005A" mask="url(#mask-2)"></path>
                    <path d="M73.1177076,9.51381076 L75.3998407,9.51381076 L74.6041586,5.01633887 L74.2902917,3.04582236 L73.9762067,5.01633887 L73.1177076,9.51381076 Z M76.0070717,12.9405729 L72.4478776,12.9405729 L71.9451235,15.617682 L67.8624543,15.617682 L71.2124765,1.3111342 L71.2124765,0.411550583 L77.3890458,0.411550583 L80.780946,15.617682 L76.4886688,15.617682 L76.0070717,12.9405729 Z" id="Fill-13" fill="#E5005A" mask="url(#mask-2)"></path>
                    <path d="M88.5286384,11.4627747 C88.5286384,10.7987963 87.9632854,10.3061672 85.6809342,9.53531866 C83.5034961,8.80730741 81.7657771,7.52218795 81.7657771,4.86649751 C81.7657771,1.65392197 84.3617771,0.090359962 87.1885423,0.090359962 C90.0569675,0.090359962 92.5487087,1.6322802 92.4019176,5.33748487 L88.5286384,5.44457816 C88.5286384,4.18110046 88.0258843,3.62421537 87.1466643,3.62421537 C86.4975553,3.62421537 85.9531412,3.94549523 85.9531412,4.5666363 C85.9531412,5.33748487 86.3719213,5.7230207 88.8006274,6.60118567 C91.1039176,7.43651332 92.7160026,8.46460889 92.7160026,11.3559046 C92.7160026,14.1827211 90.3710525,15.938828 87.2513593,15.938828 C84.2573002,15.938828 81.4935701,14.3540704 81.6610821,10.6919262 L85.5343612,10.5846098 C85.5343612,11.9127897 86.3091043,12.4051957 87.2304203,12.4051957 C88.0470414,12.4051957 88.5286384,12.1053345 88.5286384,11.4627747" id="Fill-14" fill="#34B6B3" mask="url(#mask-2)"></path>
                    <path d="M94.8107316,0.411572894 L103.688214,0.411572894 L103.688214,3.9454283 L98.9980957,3.9454283 L98.9980957,6.19416424 L103.248495,6.19416424 L103.248495,9.62092636 L98.9980957,9.62092636 L98.9980957,12.0838489 L103.688214,12.0838489 L103.688214,15.6177043 L94.8107316,15.6177043 L94.8107316,0.411572894 Z" id="Fill-15" fill="#34B6B3" mask="url(#mask-2)"></path>
                    <path d="M111.07966,3.70986768 C110.535246,3.70986768 110.493368,3.73128634 110.493368,3.73128634 L110.493368,6.90102457 C110.493368,6.90102457 110.556403,6.94386188 110.954026,6.94386188 C111.91722,6.94386188 113.047708,6.7296753 113.047708,5.3160439 C113.047708,4.26675278 112.461634,3.70986768 111.07966,3.70986768 L111.07966,3.70986768 Z M110.493368,9.89941353 L110.493368,15.6177489 L106.305786,15.6177489 L106.305786,0.411617516 C106.305786,0.411617516 108.31593,0.368780201 110.535246,0.368780201 C114.26217,0.368780201 117.214351,1.0755959 117.214351,4.63064685 C117.214351,6.81534993 116.000107,8.10046939 114.47156,8.76422467 C114.785645,8.93557393 115.141608,9.27827245 115.51851,10.0493441 C116.355852,11.8054509 117.905338,15.6177489 117.905338,15.6177489 L113.445767,15.6177489 L111.121538,9.89941353 L110.493368,9.89941353 Z" id="Fill-16" fill="#34B6B3" mask="url(#mask-2)"></path>
                </g>
            </g>
        </g>
    </g>
</svg>