<?xml version="1.0" encoding="UTF-8" standalone="no"?>
<svg width="30px" height="43px" viewBox="0 0 30 43" version="1.1" xmlns="http://www.w3.org/2000/svg" xmlns:xlink="http://www.w3.org/1999/xlink">
    <!-- Generator: Sketch 3.6.1 (26313) - http://www.bohemiancoding.com/sketch -->
    <title>Fill 4 + Fill 5 + Fill 6 Copy</title>
    <desc>Created with Sketch.</desc>
    <defs></defs>
    <g id="Welcome" stroke="none" stroke-width="1" fill="none" fill-rule="evenodd" opacity="0.746268657">
        <g id="fluxo1" transform="translate(-318.000000, -1239.000000)" fill="#231F1F">
            <g id="Fill-4-+-Fill-5-+-Fill-6-Copy" transform="translate(318.000000, 1239.000000)">
                <path d="M29.3988288,15.0611141 C29.3988288,7.13521186 22.9319317,0.687208462 14.9828054,0.687208462 C7.03367897,0.687208462 0.566781905,7.13521186 0.566781905,15.0611141 C0.566781905,19.5144114 2.60927032,23.5025169 5.80897225,26.1407819 L5.80897225,41.195488 C5.80897225,41.6907343 6.08942943,42.142859 6.53304979,42.3643478 C6.71849228,42.4571249 6.91900606,42.5022067 7.11820929,42.5022067 C7.39735592,42.5022067 7.67388147,42.4133498 7.90584839,42.2408629 L14.9828054,36.9486522 L22.0597623,42.2408629 C22.291074,42.4133498 22.5675995,42.5022067 22.8460909,42.5022067 C23.0459494,42.5022067 23.2464632,42.4571249 23.4325609,42.3643478 C23.8761813,42.142859 24.1566385,41.6907343 24.1566385,41.195488 L24.1566385,26.1407819 C27.3563404,23.5025169 29.3988288,19.5144114 29.3988288,15.0611141 L29.3988288,15.0611141 Z M7.11951984,41.195488 L7.11951984,27.0992601 C7.54217143,27.3743243 7.97923905,27.6271744 8.43006742,27.8578103 L8.43006742,40.2154489 L7.11951984,41.195488 L7.11951984,41.195488 Z M14.9828054,35.3152538 L9.74061501,39.2354099 L9.74061501,28.446487 C11.3663493,29.0822057 13.1336227,29.4350197 14.9828054,29.4350197 C16.831988,29.4350197 18.5992614,29.0822057 20.2249957,28.446487 L20.2249957,39.2354099 L14.9828054,35.3152538 L14.9828054,35.3152538 Z M22.8460909,41.195488 L21.5355433,40.2154489 L21.5355433,27.8578103 C21.9870269,27.6271744 22.4240945,27.3743243 22.8460909,27.0992601 L22.8460909,41.195488 L22.8460909,41.195488 Z M14.9828054,28.128301 C7.75644596,28.128301 1.87732949,22.266361 1.87732949,15.0611141 C1.87732949,7.85586721 7.75644596,1.99392716 14.9828054,1.99392716 C22.2091647,1.99392716 28.0882812,7.85586721 28.0882812,15.0611141 C28.0882812,22.266361 22.2091647,28.128301 14.9828054,28.128301 L14.9828054,28.128301 Z" id="Fill-4"></path>
                <path d="M14.9828054,3.30064585 C8.47921296,3.30064585 3.18787708,8.57652257 3.18787708,15.0611141 C3.18787708,21.5457056 8.47921296,26.8215823 14.9828054,26.8215823 C21.4863978,26.8215823 26.7777336,21.5457056 26.7777336,15.0611141 C26.7777336,8.57652257 21.4863978,3.30064585 14.9828054,3.30064585 L14.9828054,3.30064585 Z M14.9828054,25.5148636 C9.20197995,25.5148636 4.49842466,20.8250502 4.49842466,15.0611141 C4.49842466,9.29717793 9.20197995,4.60736454 14.9828054,4.60736454 C20.7636308,4.60736454 25.467186,9.29717793 25.467186,15.0611141 C25.467186,20.8250502 20.7636308,25.5148636 14.9828054,25.5148636 L14.9828054,25.5148636 Z" id="Fill-5"></path>
                <path d="M19.6667024,13.3368988 L16.8431277,12.9069883 L15.5745176,10.2131877 C15.4663974,9.98385861 15.235741,9.83750611 14.9814948,9.83750611 C14.7272486,9.83750611 14.4965922,9.98385861 14.388472,10.2131877 L13.119862,12.9069883 L10.2969425,13.3368988 C10.0544912,13.3741403 9.85266683,13.5433603 9.77468925,13.7753029 C9.69671167,14.0078988 9.75568631,14.2633623 9.92671277,14.439116 L11.9888594,16.5468532 L11.5006804,19.5294387 C11.4600534,19.7764085 11.5648972,20.024685 11.7699979,20.1684241 C11.9744434,20.3128165 12.2444162,20.3278438 12.4645882,20.2063189 L14.9814948,18.8185837 L17.4984014,20.2063189 C17.5973478,20.2612011 17.7067785,20.2879889 17.815554,20.2879889 C17.9479193,20.2879889 18.0809398,20.2481339 18.1929917,20.1684241 C18.3980924,20.024685 18.5029362,19.7764085 18.4629645,19.5294387 L17.9741302,16.5468532 L20.0362768,14.439116 C20.2079586,14.2633623 20.2669332,14.0078988 20.1883004,13.7753029 C20.1103228,13.5433603 19.9091537,13.3741403 19.6667024,13.3368988 L19.6667024,13.3368988 Z M16.8051218,15.8706263 C16.6603063,16.0195923 16.5941236,16.2273605 16.6275426,16.4325154 L16.9519031,18.4115408 L15.2986473,17.5001045 C15.199701,17.4458757 15.0909255,17.4184346 14.9814948,17.4184346 C14.8720641,17.4184346 14.7632886,17.4458757 14.6643423,17.5001045 L13.0110865,18.4115408 L13.335447,16.4325154 C13.368866,16.2273605 13.3033386,16.0195923 13.1578678,15.8706263 L11.7549266,14.4371559 L13.6637392,14.146411 C13.8793243,14.113743 14.065422,13.9758842 14.1578156,13.7779163 L14.9814948,12.02822 L15.805174,13.7779163 C15.8975676,13.9758842 16.0836653,14.113743 16.2992504,14.146411 L18.208063,14.4371559 L16.8051218,15.8706263 L16.8051218,15.8706263 Z" id="Fill-6"></path>
            </g>
        </g>
    </g>
</svg>