<?xml version="1.0" encoding="UTF-8" standalone="no"?>
<svg width="20px" height="16px" viewBox="0 0 20 16" version="1.1" xmlns="http://www.w3.org/2000/svg" xmlns:xlink="http://www.w3.org/1999/xlink">
    <!-- Generator: Sketch 3.6.1 (26313) - http://www.bohemiancoding.com/sketch -->
    <title>twitter-icon</title>
    <desc>Created with Sketch.</desc>
    <defs></defs>
    <g id="Welcome" stroke="none" stroke-width="1" fill="none" fill-rule="evenodd">
        <g id="Mobile-Portrait" transform="translate(-150.000000, -223.000000)" fill="#FFFFFF">
            <g id="social-+-Facebook-ALT-Fly-Out-2-Copy" transform="translate(18.000000, 218.000000)">
                <g id="social">
                    <g id="Twitter-Button-Small" transform="translate(112.000000, 0.000000)">
                        <path d="M40,6.8939622 C39.2641748,7.21527728 38.4733495,7.43246601 37.6433495,7.52999785 C38.4903883,7.03010537 39.1411165,6.2385731 39.4474272,5.29531933 C38.6545631,5.75822522 37.7764563,6.09435405 36.8417961,6.27546412 C36.0933495,5.49043079 35.0269417,5 33.8467476,5 C31.1982039,5 29.2512136,7.43308723 29.8498058,9.95959668 C26.4396117,9.79119776 23.4161165,8.18304542 21.3923786,5.73939741 C20.3175243,7.55446444 20.8348544,9.92982582 22.6621845,11.1320813 C21.9896602,11.1111509 21.3567961,10.9294196 20.8036893,10.626789 C20.7591748,12.4981961 22.1214563,14.2480826 24.0947087,14.6384011 C23.517233,14.7930853 22.8847087,14.828495 22.2417961,14.7075478 C22.763835,16.3122118 24.2792718,17.4800134 26.0748058,17.5125559 C24.3497087,18.8433565 22.1769903,19.4377703 20,19.1852197 C21.8158252,20.3312307 23.9726699,21 26.2898544,21 C33.9079126,21 38.2119417,14.6658782 37.9525243,8.98485174 C38.7543204,8.41538241 39.4499029,7.70398777 40,6.8939622 L40,6.8939622 Z" id="twitter-icon"></path>
                    </g>
                </g>
            </g>
        </g>
    </g>
</svg>